<svg xmlns="http://www.w3.org/2000/svg" width="1430.121" height="665.668" viewBox="0 0 1430.121 665.668">
  <g id="X_bg" transform="translate(-870 -1023.938)">
    <path id="x" d="M1221.609,1070.795l-72.132,72.132-72.135-72.132-51.14,51.14,72.131,72.137L1026.2,1266.2l51.14,51.14,72.135-72.131,72.132,72.131,51.139-51.14-72.132-72.13,72.132-72.137Z" transform="translate(3740.558 793.892) rotate(120)" fill="#ef0"/>
    <path id="x-2" data-name="x" d="M1075.342,1070.795l-18.139,18.139-18.14-18.139-12.86,12.86,18.139,18.141-18.139,18.139,12.86,12.86,18.14-18.139,18.139,18.139,12.86-12.86-18.139-18.139,18.139-18.141Z" transform="translate(2002.795 601.404) rotate(90)" fill="#ef0"/>
    <path id="x-3" data-name="x" d="M1126.594,1070.795l-37.058,37.059-37.06-37.059-26.273,26.274,37.058,37.061-37.058,37.057,26.273,26.273,37.06-37.058,37.058,37.058,26.273-26.273-37.058-37.057,37.058-37.061Z" transform="translate(2351.854 57.798) rotate(90)" fill="#ef0"/>
  </g>
</svg>
