<svg style="padding-left:25px" xmlns="http://www.w3.org/2000/svg" width="1836.779" height="863.779" viewBox="0 0 1836.779 863.779">
  <g id="Прямоугольник_24" data-name="Прямоугольник 24" transform="translate(29 104.719)" fill="none" stroke="#292f33" stroke-width="1">
    <rect width="846" height="735" stroke="none"/>
    <rect x="0.5" y="0.5" width="845" height="734" fill="none"/>
  </g>
  <rect id="bg_img" width="432" height="735" transform="translate(29 104.719)" fill="#e6ebef"/>
  <path id="Контур_2510" data-name="Контур 2510" d="M1444.249,1070.795l-154.316,154.317-154.324-154.317L1026.2,1180.2l154.314,154.327L1026.2,1488.842l109.407,109.407,154.324-154.314,154.316,154.314,109.406-109.407L1399.34,1334.528,1553.656,1180.2Z" transform="translate(1598.248 -689.877) rotate(90)" fill="#ef0"/>
  <g id="Прямоугольник_25" data-name="Прямоугольник 25" transform="translate(893 104.719)" fill="none" stroke="#292f33" stroke-width="1">
    <rect width="846" height="735" stroke="none"/>
    <rect x="0.5" y="0.5" width="845" height="734" fill="none"/>
  </g>
  <rect id="bg_img-2" data-name="bg_img" width="432" height="735" transform="translate(1307 104.719)" fill="#e6ebef"/>
  <text id="BADASS_Club" data-name="BADASS Club" transform="translate(999 169.719)" fill="#292f33" font-size="26" font-family="SegoeUI-Bold, Segoe UI" font-weight="700" letter-spacing="0.03em"><tspan x="0" y="28">BADASS CLUB</tspan></text>
  <path id="bag" d="M66.989,327.822l1.772-34.217A3.8,3.8,0,0,1,72.56,290H97.82a3.8,3.8,0,0,1,3.8,3.605l1.773,34.217a3.8,3.8,0,0,1-3.8,4h-28.8a3.807,3.807,0,0,1-3.8-4Zm6.851-29.086a11.71,11.71,0,0,0,22.67.011,2.753,2.753,0,1,0-2.715-.414,8.981,8.981,0,0,1-17.229.015,2.75,2.75,0,1,0-2.725.388Z" transform="translate(882.122 -113.93)" fill="#292f33"/>
  <path id="_" data-name="+" d="M1166.949,1070.795l-51.955,51.955-51.957-51.955L1026.2,1107.63l51.954,51.958-51.954,51.954,36.835,36.835,51.957-51.954,51.955,51.954,36.834-36.835-51.955-51.954,51.955-51.958Z" transform="translate(3319.579 157.101) rotate(135)" fill="#ef0"/>
</svg>
